PathFileType	4	(x/y/z)	S10_P20_T02
DataRate	CameraRate	NumFrames	NumMarkers	Units	OrigDataRate	OrigDataStartFrame	OrigNumFrames
240	240	6	51	mm	240	370	422
Frame#	Time	Sternum			R.Acromium			L.Acromium			Top.Head			R.ASIS			L.ASIS			R.PSIS			L.PSIS			R.Great.Tro			L.Great.Tro			R.Iliac.Crest			L.Iliac.Crest			V.Sacral			R.Thigh.Upper.Post			R.Thigh.Lower.Ant			R.Thigh.Lower.Post			R.Thigh.Upper.Ant			R.Knee.Lat			R.Knee.Med			R.Shank.Upper.Post			R.Shank.Lower.Ant			R.Shank.Lower.Post			R.Shank.Upper.Ant			R.Ankle.Lat			R.Ankle.Med			R.Heel.Upper			R.Heel.Med			R.Heel.Lat			R.Toe.Lat			R.Toe.Med			R.Toe.Tip			L.Thigh.Upper.Post			L.Thigh.Lower.Ant			L.Thigh.Lower.Post			L.Thigh.Upper.Ant			L.Knee.Lat			L.Knee.Med			L.Shank.Upper.Post			L.Shank.Lower.Ant			L.Shank.Lower.Post			L.Shank.Upper.Ant			L.Ankle.Lat			L.Ankle.Med			L.Heel.Upper			L.Heel.Med			L.Heel.Lat			L.Toe.Lat			L.Toe.Med			L.Toe.Tip			Cervical.Spine			Back			
		X1	Y1	Z1	X2	Y2	Z2	X3	Y3	Z3	X4	Y4	Z4	X5	Y5	Z5	X6	Y6	Z6	X7	Y7	Z7	X8	Y8	Z8	X9	Y9	Z9	X10	Y10	Z10	X11	Y11	Z11	X12	Y12	Z12	X13	Y13	Z13	X14	Y14	Z14	X15	Y15	Z15	X16	Y16	Z16	X17	Y17	Z17	X18	Y18	Z18	X19	Y19	Z19	X20	Y20	Z20	X21	Y21	Z21	X22	Y22	Z22	X23	Y23	Z23	X24	Y24	Z24	X25	Y25	Z25	X26	Y26	Z26	X27	Y27	Z27	X28	Y28	Z28	X29	Y29	Z29	X30	Y30	Z30	X31	Y31	Z31	X32	Y32	Z32	X33	Y33	Z33	X34	Y34	Z34	X35	Y35	Z35	X36	Y36	Z36	X37	Y37	Z37	X38	Y38	Z38	X39	Y39	Z39	X40	Y40	Z40	X41	Y41	Z41	X42	Y42	Z42	X43	Y43	Z43	X44	Y44	Z44	X45	Y45	Z45	X46	Y46	Z46	X47	Y47	Z47	X48	Y48	Z48	X49	Y49	Z49	X50	Y50	Z50	X51	Y51	Z51	

370	1.5375	700.65	1269.6	375.67	556.91	1422.5	517.73	602.65	1465.1	224.66	544.65	1745.2	401.25	648.15	1009.1	467.26	651	1014.4	236.43	448.91	1025	380.78	456.51	1033.1	299.77	588.01	931.25	542.4	579.27	949.84	179.89	547.78	1085.8	511.21	587.51	1089.9	208.5	430.75	995.8	341.5	662.55	728.11	529.35	732.25	669.86	482.23	680.19	640.73	516.73	715.05	759.28	489.75	709.75	522.61	471.43	686.25	523.14	344.5	717.34	287.44	471.6	799.4	251.99	452.4	744.36	218.31	463.56	777.24	325.53	459.8	802.66	118.98	440.12	802.02	136.6	361.95	762.99	54.494	390.4	780.38	33.232	362.01	777.31	33.034	424.69	942.3	82.421	463.62	960.06	104.64	356.51	1007	142.17	397.64	463.7	703.08	204.53	510.06	605.18	223.93	438.79	613.72	230.92	539.76	688.19	199.09	441.86	519.52	238.05	468.78	515.66	365.53	296.9	348.91	254.35	321.53	242.15	269.55	268.87	277.39	269.28	350.69	311.9	256.32	243.74	150.11	288.06	270.33	160.42	368.49	173.73	147.54	335	174.28	116.34	370.22	165.62	115.44	305.44	320.14	40.257	261.67	356.5	43.731	367.02	405.5	43.242	320.27	503.79	1491.7	369.89	421.71	1285.7	335.11
371	1.5417	706.39	1269.1	375.95	562.71	1421.8	518.27	608.09	1464.8	225.25	549.97	1744.7	401.59	654.15	1008.6	467.27	656.64	1013.9	236.39	454.74	1024.4	381.05	462.25	1032.5	300.03	594.27	930.72	542.38	584.91	949.22	179.97	553.74	1085.3	511.39	593.09	1089.4	208.61	436.57	995.18	341.8	669.07	727.78	528.91	738.57	669.59	481.41	686.72	640.41	516.2	721.35	758.99	489.05	715.98	522.27	470.88	691.98	522.8	344.13	722.29	287.06	471.39	803.87	250.99	451.52	748.77	217.71	463.24	782.29	324.68	458.89	806.07	118.11	439.55	805	135.57	361.36	765.44	54.683	390.14	782.3	33.112	361.7	779.57	33.121	424.44	945.3	80.305	462.27	962.63	102.16	355.03	1010.3	139.18	395.88	469.65	702.23	204.66	516.16	604.39	223.96	444.91	612.86	231.09	545.74	687.46	199.14	447.82	518.85	238.13	474.8	514.82	365.58	301.18	349.79	254.18	324.59	242.79	269.27	272.37	278.58	269.01	354.57	312.21	256.16	245.73	151.51	287.77	272.47	161.52	368.09	175.83	149.95	334.71	176.01	118.88	370.03	167.2	117.83	305.26	320.37	40.311	261.63	356.79	43.627	366.86	405.55	43.209	320.31	509.39	1491.1	370.58	427.37	1285.2	335.61
372	1.5458	712.15	1268.6	376.23	568.51	1421	518.82	613.51	1464.5	225.84	555.3	1744.2	401.92	660.18	1008.2	467.3	662.32	1013.4	236.37	460.61	1023.8	381.33	468.02	1031.9	300.3	600.57	930.19	542.35	590.58	948.61	180.07	559.75	1084.7	511.59	598.7	1088.9	208.74	442.41	994.56	342.1	675.66	727.47	528.48	744.95	669.33	480.58	693.31	640.11	515.66	727.71	758.72	488.34	722.28	521.95	470.3	697.79	522.47	343.76	727.12	286.68	471.18	808.21	249.93	450.66	753.03	217.09	462.94	787.26	323.79	457.99	809.23	117.2	439.02	807.74	134.5	360.8	767.57	54.926	389.91	783.87	33.015	361.43	781.46	33.249	424.22	947.96	78.005	461.02	964.92	99.45	353.65	1013.3	135.88	394.21	475.71	701.32	204.79	522.42	603.57	223.97	451.18	611.94	231.26	551.83	686.72	199.18	453.94	518.15	238.19	481.02	513.93	365.61	305.61	350.68	254.01	327.78	243.44	268.97	276.01	279.79	268.75	358.59	312.52	255.98	247.84	152.97	287.46	274.75	162.64	367.67	178.1	152.46	334.42	177.88	121.52	369.84	168.92	120.33	305.08	320.61	40.372	261.59	357.09	43.525	366.7	405.61	43.176	320.35	514.98	1490.6	371.28	433.04	1284.7	336.13
373	1.55	717.93	1268.1	376.52	574.33	1420.3	519.38	618.92	1464.3	226.43	560.63	1743.7	402.26	666.24	1007.7	467.34	668.02	1013	236.35	466.51	1023.2	381.62	473.82	1031.3	300.58	606.9	929.68	542.34	596.28	948.01	180.18	565.79	1084.1	511.8	604.33	1088.5	208.89	448.28	993.94	342.42	682.29	727.15	528.04	751.38	669.09	479.76	699.95	639.81	515.1	734.11	758.46	487.65	728.65	521.64	469.71	703.65	522.14	343.38	731.87	286.32	470.97	812.43	248.84	449.82	757.15	216.48	462.64	792.16	322.89	457.1	812.16	116.29	438.52	810.29	133.4	360.28	769.43	55.222	389.72	785.14	32.944	361.22	783.03	33.42	424.03	950.32	75.56	459.85	966.96	96.547	352.37	1016.2	132.34	392.65	481.88	700.37	204.94	528.83	602.72	223.96	457.6	610.96	231.43	558.04	685.97	199.2	460.24	517.41	238.23	487.45	512.97	365.61	310.19	351.6	253.85	331.11	244.12	268.64	279.81	281.04	268.49	362.75	312.85	255.76	250.09	154.47	287.13	277.18	163.79	367.22	180.57	155.07	334.13	179.91	124.28	369.64	170.8	122.96	304.9	320.86	40.444	261.56	357.38	43.427	366.53	405.66	43.142	320.39	520.57	1490.1	372	438.72	1284.1	336.66
374	1.5542	723.72	1267.7	376.81	580.15	1419.5	519.94	624.32	1464	227.02	565.98	1743.2	402.59	672.35	1007.3	467.38	673.75	1012.5	236.35	472.43	1022.6	381.93	479.65	1030.7	300.87	613.26	929.17	542.33	602.02	947.42	180.3	571.87	1083.6	512.01	609.98	1088	209.04	454.19	993.33	342.75	688.95	726.85	527.61	757.86	668.85	478.94	706.63	639.53	514.55	740.56	758.2	486.96	735.07	521.34	469.1	709.55	521.83	342.99	736.54	285.97	470.76	816.55	247.73	449	761.15	215.88	462.36	797	321.97	456.21	814.89	115.38	438.05	812.67	132.29	359.78	771.05	55.568	389.55	786.17	32.903	361.03	784.33	33.632	423.86	952.4	73.008	458.79	968.8	93.497	351.22	1018.8	128.59	391.21	488.16	699.38	205.1	535.39	601.84	223.91	464.17	609.92	231.59	564.36	685.2	199.2	466.71	516.63	238.23	494.08	511.95	365.55	314.95	352.53	253.68	334.59	244.82	268.28	283.76	282.31	268.23	367.06	313.19	255.51	252.48	156.02	286.77	279.78	164.96	366.75	183.24	157.78	333.84	182.13	127.15	369.45	172.86	125.72	304.72	321.13	40.53	261.53	357.68	43.337	366.37	405.73	43.106	320.43	526.16	1489.5	372.74	444.42	1283.6	337.22
375	1.5583	729.52	1267.3	377.1	585.98	1418.8	520.52	629.7	1463.8	227.61	571.33	1742.7	402.93	678.48	1006.9	467.43	679.51	1012.1	236.36	478.38	1022	382.24	485.5	1030.1	301.17	619.65	928.67	542.33	607.78	946.84	180.44	577.99	1083.1	512.24	615.66	1087.6	209.22	460.12	992.72	343.1	695.65	726.55	527.18	764.36	668.63	478.14	713.32	639.25	514	747.03	757.96	486.3	741.52	521.05	468.49	715.48	521.52	342.6	741.14	285.65	470.53	820.59	246.61	448.19	765.07	215.3	462.08	801.78	321.04	455.33	817.46	114.49	437.59	814.93	131.19	359.3	772.48	55.961	389.41	786.99	32.892	360.88	785.4	33.887	423.72	954.23	70.391	457.84	970.46	90.344	350.18	1021.3	124.7	389.9	494.55	698.33	205.26	542.1	600.94	223.84	470.88	608.84	231.74	570.79	684.42	199.17	473.35	515.82	238.2	500.93	510.86	365.45	319.87	353.48	253.52	338.23	245.55	267.89	287.89	283.62	267.97	371.52	313.54	255.22	255.03	157.62	286.39	282.55	166.17	366.24	186.13	160.6	333.54	184.54	130.14	369.25	175.1	128.61	304.54	321.42	40.635	261.5	357.98	43.26	366.21	405.8	43.065	320.47	531.75	1489	373.49	450.13	1283	337.78
